<svg width="91" height="91" viewBox="0 0 91 91" fill="none" xmlns="http://www.w3.org/2000/svg">
<g id="image 1" clip-path="url(#clip0_1_9811)">
<path id="Vector" d="M23.6962 70.264C17.626 70.264 12.2264 66.3774 10.2658 60.5911L10.1332 60.1551C9.67076 58.6228 9.47705 57.3342 9.47705 56.0449V30.1923L0.278378 60.898C-0.904696 65.4144 1.79124 70.0967 6.31455 71.3443L64.9468 87.0464C65.6786 87.236 66.4104 87.3269 67.1311 87.3269C70.9073 87.3269 74.3579 84.8205 75.3251 81.1269L78.741 70.264H23.6962Z" fill="#898889"/>
<path id="Vector_2" d="M34.1238 30.4506C38.3062 30.4506 41.7068 27.0492 41.7068 22.8668C41.7068 18.6844 38.3062 15.2831 34.1238 15.2831C29.9414 15.2831 26.54 18.6844 26.54 22.8668C26.54 27.0492 29.9414 30.4506 34.1238 30.4506Z" fill="#898889"/>
<path id="Vector_3" d="M81.5202 3.90771H24.6438C19.4193 3.90771 15.1647 8.16234 15.1647 13.3876V55.0965C15.1647 60.3217 19.4193 64.5763 24.6438 64.5763H81.5202C86.7455 64.5763 91.0001 60.3217 91.0001 55.0965V13.3876C91.0001 8.16234 86.7455 3.90771 81.5202 3.90771ZM24.6438 11.4915H81.5202C82.5672 11.4915 83.4164 12.3406 83.4164 13.3876V40.3053L71.4384 26.3285C70.1679 24.8385 68.3287 24.0422 66.3534 23.9971C64.3893 24.0082 62.5466 24.8802 61.2879 26.3896L47.2049 43.2928L42.617 38.716C40.0238 36.1229 35.8032 36.1229 33.2135 38.716L22.7484 49.1776V13.3876C22.7484 12.3406 23.5975 11.4915 24.6438 11.4915Z" fill="#898889"/>
</g>
<defs>
<clipPath id="clip0_1_9811">
<rect width="91" height="91" fill="white"/>
</clipPath>
</defs>
</svg>
